<svg xmlns="http://www.w3.org/2000/svg" viewBox="0 0 36.17 34.99"><defs><style>.cls-1{fill:#cd3232;}</style></defs><g id="Layer_2" data-name="Layer 2"><g id="Camada_1" data-name="Camada 1"><path class="cls-1" d="M3.53,26.69c0-2.33,0-4.66,0-7,0-.6-.17-.83-.78-.77s-1.08,0-1.63,0a1,1,0,0,1-1.07-.55,1.05,1.05,0,0,1,.37-1.16l8-8Q12.72,4.93,17,.66c.88-.88,1.36-.88,2.24,0L35.53,17c.16.17.4.32.48.52a1.48,1.48,0,0,1,.11,1,1.07,1.07,0,0,1-.75.48,15.94,15.94,0,0,1-1.83,0c-.83,0-.83,0-.83.87v13.7c0,1.17-.29,1.47-1.45,1.47q-4,0-8,0c-1.45,0-2.11-.66-2.11-2.12V23.08c0-.89,0-.89-.91-.89H16c-.92,0-.92,0-.92.95,0,3.22,0,6.44,0,9.65a3.05,3.05,0,0,1-.2,1.21,1.65,1.65,0,0,1-1.63,1c-2.85,0-5.7,0-8.55,0-.81,0-1.13-.36-1.13-1.18C3.52,31.43,3.53,29.06,3.53,26.69Z"/></g></g></svg>